<svg xmlns="http://www.w3.org/2000/svg" viewBox="0 0 1254 414" width="1254" height="414">
  <defs>
    <linearGradient id="goldLight" x1="0" y1="0" x2="0" y2="1">
      <stop offset="0%"  stop-color="#F0D085"/>
      <stop offset="50%" stop-color="#E3BD6F"/>
      <stop offset="100%" stop-color="#C99A4A"/>
    </linearGradient>
    <linearGradient id="goldDark" x1="0" y1="0" x2="0" y2="1">
      <stop offset="0%"  stop-color="#C99A4A"/>
      <stop offset="50%" stop-color="#A8803A"/>
      <stop offset="100%" stop-color="#7D5E28"/>
    </linearGradient>
    <linearGradient id="goldText" x1="0" y1="0" x2="0" y2="1">
      <stop offset="0%"  stop-color="#E6C068"/>
      <stop offset="50%" stop-color="#D4A95C"/>
      <stop offset="100%" stop-color="#B8863A"/>
    </linearGradient>
  </defs>

  <!-- 文字：已转为轮廓路径（任何设备都一致） -->
  <path d="M337.00 252.61C326.82 250.36 318.69 244.25 314.27 235.56C310.74 228.59 310.52 218.49 313.77 211.88C316.90 205.54 322.92 199.68 329.76 196.32C335.09 193.70 336.36 193.50 347.50 193.50C357.94 193.50 360.17 193.80 364.68 195.84C367.53 197.13 370.65 199.06 371.62 200.13C373.31 202.00 373.28 202.17 370.94 204.50L368.50 206.93L362.06 203.73C356.42 200.92 354.63 200.53 347.56 200.53C337.81 200.54 330.82 203.25 325.57 209.05C315.10 220.64 320.31 239.17 335.50 244.34C342.89 246.86 354.30 246.54 360.53 243.64C367.61 240.34 369.00 238.66 369.00 233.43L369.00 229.00L357.50 229.00L346.00 229.00L346.00 225.50L346.00 222.00L362.49 222.00L378.98 222.00L378.40 231.25C377.83 240.33 377.76 240.56 374.16 243.84C364.75 252.44 350.92 255.70 337.00 252.61Z M134.00 223.50C134.00 207.28 134.34 193.96 134.75 193.90C139.50 193.27 141.46 193.52 142.62 194.90C143.36 195.78 150.05 204.73 157.50 214.78L171.03 233.06L185.62 213.52C200.03 194.22 202.51 191.83 206.50 193.36C207.79 193.86 208.00 198.12 208.00 223.47L208.00 253.00L204.02 253.00L200.04 253.00L199.77 230.27L199.50 207.55L186.50 224.75C175.48 239.33 173.10 241.96 170.86 241.98C168.60 242.00 166.38 239.53 155.36 224.77L142.50 207.55L142.23 230.27L141.96 253.00L137.98 253.00L134.00 253.00L134.00 223.50Z M237.24 223.34L237.50 193.68L263.50 193.59L289.50 193.50L289.50 197.00L289.50 200.50L267.25 200.77L245.00 201.04L245.00 210.02L245.00 219.00L265.00 219.00L285.00 219.00L285.00 222.50L285.00 226.00L265.00 226.00L245.00 226.00L245.00 236.00L245.00 246.00L267.50 246.00L290.00 246.00L290.00 249.50L290.00 253.00L263.49 253.00L236.97 253.00L237.24 223.34Z M400.40 248.75C401.76 246.41 409.32 233.28 417.19 219.58C425.06 205.87 432.26 194.18 433.20 193.61C437.44 191.02 439.66 193.64 451.98 215.72C458.49 227.39 465.88 240.35 468.41 244.51C470.93 248.67 473.00 252.28 473.00 252.54C473.00 252.79 470.99 253.00 468.54 253.00L464.09 253.00L460.00 246.00L455.91 239.00L435.57 239.00L415.23 239.00L411.00 246.00C406.79 252.98 406.76 253.00 402.34 253.00L397.92 253.00L400.40 248.75Z M778.95 248.69C768.95 245.88 762.21 239.20 759.98 229.91C757.23 218.46 762.83 207.28 774.26 201.37C778.95 198.94 789.78 198.40 795.37 200.30C812.78 206.23 818.69 226.99 806.81 240.48C800.04 248.17 788.83 251.48 778.95 248.69Z M1046.33 248.98C1040.85 247.86 1036.92 245.77 1033.08 241.92C1028.48 237.32 1026.76 233.31 1026.23 225.97C1025.38 214.04 1031.96 204.17 1043.27 200.41C1050.43 198.03 1060.42 198.88 1066.37 202.37C1072.12 205.74 1072.70 206.75 1070.28 209.16C1068.34 211.10 1068.29 211.10 1063.51 208.56C1054.10 203.55 1042.35 205.74 1036.35 213.61C1032.45 218.73 1031.93 227.77 1035.21 233.50C1037.91 238.22 1046.34 243.00 1051.93 242.99C1061.17 242.98 1069.00 237.97 1069.00 232.08L1069.00 229.00L1060.50 229.00L1052.00 229.00L1052.00 226.00L1052.00 223.00L1064.04 223.00L1076.08 223.00L1075.91 231.01C1075.74 238.86 1075.66 239.09 1072.17 242.16C1065.40 248.10 1055.19 250.80 1046.33 248.98Z M1103.34 248.99C1098.63 248.02 1091.94 244.84 1090.20 242.74C1089.27 241.62 1089.52 240.86 1091.39 239.11L1093.75 236.89L1097.47 239.42C1106.66 245.65 1122.00 243.14 1122.00 235.40C1122.00 232.17 1119.63 230.23 1113.69 228.58C1110.83 227.79 1105.96 226.44 1102.86 225.58C1092.55 222.71 1088.16 214.32 1092.93 206.62C1095.62 202.27 1100.17 199.89 1106.94 199.27C1113.29 198.70 1120.65 200.61 1125.00 203.98L1127.50 205.91L1125.27 208.15L1123.05 210.40L1118.77 207.99C1110.46 203.30 1098.98 205.68 1098.19 212.26C1097.75 215.91 1101.25 218.71 1107.89 220.02C1117.51 221.92 1122.57 223.94 1125.59 227.09C1127.99 229.60 1128.50 230.99 1128.50 234.99C1128.50 240.70 1126.14 244.48 1120.94 247.10C1116.64 249.26 1108.80 250.10 1103.34 248.99Z M702.00 224.56L702.00 200.00L705.43 200.00L708.85 200.00L708.88 209.25C708.90 214.34 708.93 219.06 708.95 219.75C708.99 220.69 712.59 221.00 723.50 221.00L738.00 221.00L738.00 210.50L738.00 200.00L741.52 200.00L745.04 200.00L744.77 224.25L744.50 248.50L741.25 248.81L738.00 249.13L738.00 238.06L738.00 227.00L723.53 227.00L709.07 227.00L708.78 237.75L708.50 248.50L705.25 248.81L702.00 249.13L702.00 224.56Z M828.00 224.61C828.00 198.57 828.03 198.41 832.90 199.69C834.95 200.22 835.00 200.75 835.00 221.09L835.00 241.95L850.25 242.22L865.50 242.50L865.81 245.75L866.13 249.00L847.06 249.00L828.00 249.00L828.00 224.61Z M880.00 224.50L880.00 200.00L885.25 199.80C897.27 199.35 908.58 200.23 912.50 201.94C917.61 204.16 923.22 210.39 925.50 216.35C928.90 225.27 925.81 236.72 918.34 242.88C912.39 247.78 907.29 249.00 892.82 249.00L880.00 249.00L880.00 224.50Z M942.00 224.58C942.00 198.76 941.98 198.89 946.71 199.80L949.00 200.23L949.00 224.62L949.00 249.00L945.50 249.00L942.00 249.00L942.00 224.58Z M966.00 224.62C966.00 208.49 966.36 199.89 967.06 199.46C969.88 197.72 973.55 201.02 988.32 218.56L1004.00 237.17L1004.00 218.59L1004.00 200.00L1007.50 200.00L1011.00 200.00L1011.00 224.56L1011.00 249.13L1007.81 248.81C1005.30 248.57 1003.53 247.20 999.56 242.42C996.78 239.08 989.67 230.60 983.77 223.58L973.04 210.82L972.77 229.66L972.50 248.50L969.25 248.81L966.00 249.13L966.00 224.62Z M794.83 240.99C806.67 235.62 809.86 220.90 801.19 211.63C797.49 207.67 793.08 206.00 786.35 206.00C770.93 206.00 761.83 219.80 768.54 233.00C772.98 241.73 785.09 245.41 794.83 240.99Z M909.30 240.38C914.59 237.71 916.98 234.87 918.59 229.35C919.82 225.11 919.89 223.30 918.95 219.82C916.18 209.54 910.45 206.06 896.25 206.02L887.00 206.00L887.00 224.00L887.00 242.00L896.55 242.00C903.36 242.00 907.02 241.54 909.30 240.38Z M446.88 222.25C443.97 216.89 440.44 210.37 439.04 207.76C437.64 205.15 436.25 203.01 435.95 203.01C435.42 203.00 430.56 211.25 422.86 225.25L419.15 232.00L435.66 232.00L452.17 232.00L446.88 222.25Z" fill="url(#goldText)" fill-rule="evenodd"/>

  <!-- X：四片四边形拼出斜面，色可编辑 -->
  <path d="M499 138 L515 138 L667 298 L651 298 Z" fill="url(#goldLight)"/>
  <path d="M515 138 L531 138 L683 298 L667 298 Z" fill="url(#goldDark)"/>
  <path d="M668 138 L684 138 L531 298 L515 298 Z" fill="url(#goldLight)"/>
  <path d="M651 138 L668 138 L515 298 L498 298 Z" fill="url(#goldDark)"/>
</svg>