<svg xmlns="http://www.w3.org/2000/svg" viewBox="0 0 1024 1024" width="1024" height="1024">
  <defs>
    <linearGradient id="gold" x1="0%" y1="0%" x2="100%" y2="0%">
      <stop offset="14.3%" stop-color="rgb(99,90,77)"/>
      <stop offset="14.3%" stop-color="rgb(99,90,77)"/>
      <stop offset="28.5%" stop-color="rgb(202,170,83)"/>
      <stop offset="42.8%" stop-color="rgb(209,181,95)"/>
      <stop offset="57.1%" stop-color="rgb(206,176,91)"/>
      <stop offset="71.4%" stop-color="rgb(202,168,83)"/>
      <stop offset="85.6%" stop-color="rgb(111,100,80)"/>
      <stop offset="85.7%" stop-color="rgb(101,92,76)"/>
    </linearGradient>
  </defs>
  <path d="M 159.0 179.0 L 180.0 203.0 L 377.0 405.0 L 490.0 405.0 L 479.0 391.0 L 269.0 178.0 Z" fill="url(#gold)" fill-rule="evenodd"/>
  <path d="M 864.0 179.0 L 754.0 178.0 L 533.0 405.0 L 647.0 405.0 L 851.0 195.0 Z" fill="url(#gold)" fill-rule="evenodd"/>
  <path d="M 563.0 454.0 L 551.0 460.0 L 539.0 470.0 L 533.0 478.0 L 526.0 492.0 L 523.0 511.0 L 524.0 522.0 L 527.0 534.0 L 533.0 546.0 L 539.0 554.0 L 551.0 564.0 L 562.0 570.0 L 576.0 574.0 L 607.0 574.0 L 631.0 566.0 L 640.0 559.0 L 640.0 511.0 L 618.0 511.0 L 618.0 547.0 L 615.0 550.0 L 598.0 555.0 L 586.0 555.0 L 568.0 549.0 L 555.0 537.0 L 549.0 525.0 L 547.0 510.0 L 548.0 502.0 L 554.0 488.0 L 561.0 480.0 L 574.0 472.0 L 590.0 469.0 L 602.0 470.0 L 619.0 477.0 L 625.0 482.0 L 629.0 482.0 L 641.0 470.0 L 641.0 468.0 L 630.0 459.0 L 617.0 453.0 L 605.0 450.0 L 585.0 449.0 Z" fill="url(#gold)" fill-rule="evenodd"/>
  <path d="M 239.0 451.0 L 239.0 573.0 L 262.0 572.0 L 263.0 496.0 L 301.0 558.0 L 304.0 561.0 L 315.0 561.0 L 356.0 495.0 L 357.0 573.0 L 380.0 572.0 L 380.0 452.0 L 358.0 452.0 L 310.0 531.0 L 259.0 451.0 Z" fill="url(#gold)" fill-rule="evenodd"/>
  <path d="M 412.0 451.0 L 412.0 573.0 L 507.0 573.0 L 507.0 554.0 L 505.0 553.0 L 438.0 554.0 L 436.0 552.0 L 436.0 522.0 L 438.0 520.0 L 497.0 520.0 L 497.0 502.0 L 437.0 502.0 L 436.0 472.0 L 504.0 471.0 L 505.0 452.0 Z" fill="url(#gold)" fill-rule="evenodd"/>
  <path d="M 710.0 451.0 L 653.0 570.0 L 653.0 573.0 L 676.0 573.0 L 690.0 545.0 L 753.0 545.0 L 767.0 573.0 L 791.0 573.0 L 788.0 563.0 L 740.0 465.0 L 736.0 454.0 L 733.0 451.0 Z M 721.0 475.0 L 745.0 525.0 L 744.0 526.0 L 699.0 525.0 Z" fill="url(#gold)" fill-rule="evenodd"/>
  <path d="M 491.0 618.0 L 372.0 619.0 L 205.0 784.0 L 146.0 845.0 L 271.0 844.0 L 464.0 648.0 Z" fill="url(#gold)" fill-rule="evenodd"/>
  <path d="M 532.0 618.0 L 567.0 656.0 L 752.0 844.0 L 877.0 845.0 L 877.0 843.0 L 651.0 619.0 Z" fill="url(#gold)" fill-rule="evenodd"/>
</svg>